<?xml version="1.0" encoding="UTF-8" standalone="no"?>
<!-- Created with Inkscape (http://www.inkscape.org/) -->

<svg
   xmlns:dc="http://purl.org/dc/elements/1.1/"
   xmlns:cc="http://creativecommons.org/ns#"
   xmlns:rdf="http://www.w3.org/1999/02/22-rdf-syntax-ns#"
   xmlns:svg="http://www.w3.org/2000/svg"
   xmlns="http://www.w3.org/2000/svg"
   xmlns:sodipodi="http://sodipodi.sourceforge.net/DTD/sodipodi-0.dtd"
   xmlns:inkscape="http://www.inkscape.org/namespaces/inkscape"
   width="11cm"
   height="4.5cm"
   viewBox="0 0 389.76377 159.44881"
   id="svg4378"
   version="1.1"
   inkscape:version="0.91 r13725"
   sodipodi:docname="momenta_full.svg">
  <defs
     id="defs4380" />
  <sodipodi:namedview
     id="base"
     pagecolor="#ffffff"
     bordercolor="#666666"
     borderopacity="1.0"
     inkscape:pageopacity="0.0"
     inkscape:pageshadow="2"
     inkscape:zoom="1.979899"
     inkscape:cx="74.231504"
     inkscape:cy="57.114548"
     inkscape:document-units="px"
     inkscape:current-layer="layer1"
     showgrid="false"
     inkscape:window-width="1920"
     inkscape:window-height="1016"
     inkscape:window-x="0"
     inkscape:window-y="27"
     inkscape:window-maximized="1"
     fit-margin-top="0"
     fit-margin-left="0"
     fit-margin-right="0"
     fit-margin-bottom="0"
     units="cm" />
  <metadata
     id="metadata4383">
    <rdf:RDF>
      <cc:Work
         rdf:about="">
        <dc:format>image/svg+xml</dc:format>
        <dc:type
           rdf:resource="http://purl.org/dc/dcmitype/StillImage" />
        <dc:title></dc:title>
      </cc:Work>
    </rdf:RDF>
  </metadata>
  <g
     inkscape:label="Layer 1"
     inkscape:groupmode="layer"
     id="layer1"
     transform="translate(-128.22668,-125.68666)">
    <rect
       style="color:#000000;clip-rule:nonzero;display:inline;overflow:visible;visibility:visible;opacity:1;isolation:auto;mix-blend-mode:normal;color-interpolation:sRGB;color-interpolation-filters:linearRGB;solid-color:#000000;solid-opacity:1;fill:none;fill-opacity:1;fill-rule:nonzero;stroke:#0e2a7e;stroke-width:1.5;stroke-linecap:round;stroke-linejoin:round;stroke-miterlimit:4;stroke-dasharray:none;stroke-dashoffset:0;stroke-opacity:1;color-rendering:auto;image-rendering:auto;shape-rendering:auto;text-rendering:auto;enable-background:accumulate"
       id="rect4338-4-2-38"
       width="36.154327"
       height="34.749165"
       x="140.97668"
       y="162.96848"
       inkscape:export-filename="/home/matthias/momenta_full.png"
       inkscape:export-xdpi="500"
       inkscape:export-ydpi="500" />
    <rect
       style="color:#000000;clip-rule:nonzero;display:inline;overflow:visible;visibility:visible;opacity:1;isolation:auto;mix-blend-mode:normal;color-interpolation:sRGB;color-interpolation-filters:linearRGB;solid-color:#000000;solid-opacity:1;fill:none;fill-opacity:1;fill-rule:nonzero;stroke:#0e2a7e;stroke-width:1.5;stroke-linecap:round;stroke-linejoin:round;stroke-miterlimit:4;stroke-dasharray:none;stroke-dashoffset:0;stroke-opacity:1;color-rendering:auto;image-rendering:auto;shape-rendering:auto;text-rendering:auto;enable-background:accumulate"
       id="rect4338-4-7-1"
       width="36.154327"
       height="34.749165"
       x="140.97668"
       y="197.71768"
       inkscape:export-filename="/home/matthias/momenta_full.png"
       inkscape:export-xdpi="500"
       inkscape:export-ydpi="500" />
    <rect
       style="color:#000000;clip-rule:nonzero;display:inline;overflow:visible;visibility:visible;opacity:1;isolation:auto;mix-blend-mode:normal;color-interpolation:sRGB;color-interpolation-filters:linearRGB;solid-color:#000000;solid-opacity:1;fill:#ff9900;fill-opacity:1;fill-rule:nonzero;stroke:#0e2a7e;stroke-width:1.5;stroke-linecap:round;stroke-linejoin:round;stroke-miterlimit:4;stroke-dasharray:none;stroke-dashoffset:0;stroke-opacity:1;color-rendering:auto;image-rendering:auto;shape-rendering:auto;text-rendering:auto;enable-background:accumulate"
       id="rect4338-4-8-0-5"
       width="36.154327"
       height="34.749165"
       x="140.97668"
       y="232.46683"
       inkscape:export-filename="/home/matthias/momenta_full.png"
       inkscape:export-xdpi="500"
       inkscape:export-ydpi="500" />
    <rect
       style="color:#000000;clip-rule:nonzero;display:inline;overflow:visible;visibility:visible;opacity:1;isolation:auto;mix-blend-mode:normal;color-interpolation:sRGB;color-interpolation-filters:linearRGB;solid-color:#000000;solid-opacity:1;fill:none;fill-opacity:1;fill-rule:nonzero;stroke:#0e2a7e;stroke-width:1.5;stroke-linecap:round;stroke-linejoin:round;stroke-miterlimit:4;stroke-dasharray:none;stroke-dashoffset:0;stroke-opacity:1;color-rendering:auto;image-rendering:auto;shape-rendering:auto;text-rendering:auto;enable-background:accumulate"
       id="rect4338-4-2-3-8"
       width="36.154327"
       height="34.749165"
       x="177.13109"
       y="162.96854"
       inkscape:export-filename="/home/matthias/momenta_full.png"
       inkscape:export-xdpi="500"
       inkscape:export-ydpi="500" />
    <rect
       style="color:#000000;clip-rule:nonzero;display:inline;overflow:visible;visibility:visible;opacity:1;isolation:auto;mix-blend-mode:normal;color-interpolation:sRGB;color-interpolation-filters:linearRGB;solid-color:#000000;solid-opacity:1;fill:#ff9900;fill-opacity:1;fill-rule:nonzero;stroke:#0e2a7e;stroke-width:1.5;stroke-linecap:round;stroke-linejoin:round;stroke-miterlimit:4;stroke-dasharray:none;stroke-dashoffset:0;stroke-opacity:1;color-rendering:auto;image-rendering:auto;shape-rendering:auto;text-rendering:auto;enable-background:accumulate"
       id="rect4338-4-7-5-3"
       width="36.154327"
       height="34.749165"
       x="177.13109"
       y="197.71774"
       inkscape:export-filename="/home/matthias/momenta_full.png"
       inkscape:export-xdpi="500"
       inkscape:export-ydpi="500" />
    <rect
       style="color:#000000;clip-rule:nonzero;display:inline;overflow:visible;visibility:visible;opacity:1;isolation:auto;mix-blend-mode:normal;color-interpolation:sRGB;color-interpolation-filters:linearRGB;solid-color:#000000;solid-opacity:1;fill:none;fill-opacity:1;fill-rule:nonzero;stroke:#0e2a7e;stroke-width:1.5;stroke-linecap:round;stroke-linejoin:round;stroke-miterlimit:4;stroke-dasharray:none;stroke-dashoffset:0;stroke-opacity:1;color-rendering:auto;image-rendering:auto;shape-rendering:auto;text-rendering:auto;enable-background:accumulate"
       id="rect4338-4-8-0-4-4"
       width="36.154327"
       height="34.749165"
       x="177.13109"
       y="232.46683"
       inkscape:export-filename="/home/matthias/momenta_full.png"
       inkscape:export-xdpi="500"
       inkscape:export-ydpi="500" />
    <rect
       style="color:#000000;clip-rule:nonzero;display:inline;overflow:visible;visibility:visible;opacity:1;isolation:auto;mix-blend-mode:normal;color-interpolation:sRGB;color-interpolation-filters:linearRGB;solid-color:#000000;solid-opacity:1;fill:#ff9900;fill-opacity:1;fill-rule:nonzero;stroke:#0e2a7e;stroke-width:1.5;stroke-linecap:round;stroke-linejoin:round;stroke-miterlimit:4;stroke-dasharray:none;stroke-dashoffset:0;stroke-opacity:1;color-rendering:auto;image-rendering:auto;shape-rendering:auto;text-rendering:auto;enable-background:accumulate"
       id="rect4338-4-2-5-8"
       width="36.154327"
       height="34.749165"
       x="213.28539"
       y="162.96848"
       inkscape:export-filename="/home/matthias/momenta_full.png"
       inkscape:export-xdpi="500"
       inkscape:export-ydpi="500" />
    <rect
       style="color:#000000;clip-rule:nonzero;display:inline;overflow:visible;visibility:visible;opacity:1;isolation:auto;mix-blend-mode:normal;color-interpolation:sRGB;color-interpolation-filters:linearRGB;solid-color:#000000;solid-opacity:1;fill:none;fill-opacity:1;fill-rule:nonzero;stroke:#0e2a7e;stroke-width:1.5;stroke-linecap:round;stroke-linejoin:round;stroke-miterlimit:4;stroke-dasharray:none;stroke-dashoffset:0;stroke-opacity:1;color-rendering:auto;image-rendering:auto;shape-rendering:auto;text-rendering:auto;enable-background:accumulate"
       id="rect4338-4-7-59-6"
       width="36.154327"
       height="34.749165"
       x="213.28539"
       y="197.71768"
       inkscape:export-filename="/home/matthias/momenta_full.png"
       inkscape:export-xdpi="500"
       inkscape:export-ydpi="500" />
    <rect
       style="color:#000000;clip-rule:nonzero;display:inline;overflow:visible;visibility:visible;opacity:1;isolation:auto;mix-blend-mode:normal;color-interpolation:sRGB;color-interpolation-filters:linearRGB;solid-color:#000000;solid-opacity:1;fill:none;fill-opacity:1;fill-rule:nonzero;stroke:#0e2a7e;stroke-width:1.5;stroke-linecap:round;stroke-linejoin:round;stroke-miterlimit:4;stroke-dasharray:none;stroke-dashoffset:0;stroke-opacity:1;color-rendering:auto;image-rendering:auto;shape-rendering:auto;text-rendering:auto;enable-background:accumulate"
       id="rect4338-4-8-0-46-38"
       width="36.154327"
       height="34.749165"
       x="213.28539"
       y="232.46683"
       inkscape:export-filename="/home/matthias/momenta_full.png"
       inkscape:export-xdpi="500"
       inkscape:export-ydpi="500" />
    <g
       style="font-style:normal;font-variant:normal;font-weight:200;font-stretch:normal;font-size:68.75px;line-height:125%;font-family:Stellar;-inkscape-font-specification:'Stellar, Ultra-Light';text-align:start;letter-spacing:-5.74001265px;word-spacing:0px;writing-mode:lr-tb;text-anchor:start;display:inline;fill:#000000;fill-opacity:1;stroke:none;stroke-width:1px;stroke-linecap:butt;stroke-linejoin:miter;stroke-opacity:1"
       id="text4527-4-6-2-0"
       transform="translate(3.9999996,3.9999996)"
       inkscape:export-filename="/home/matthias/momenta_full.png"
       inkscape:export-xdpi="500"
       inkscape:export-ydpi="500">
      <g
         transform="scale(0.88905129,1.1247945)"
         style="font-style:normal;font-variant:normal;font-weight:normal;font-stretch:normal;font-size:71.12409973px;line-height:125%;font-family:Tahoma;-inkscape-font-specification:'Tahoma, Normal';text-align:start;letter-spacing:-26.46704292px;word-spacing:0px;writing-mode:lr-tb;text-anchor:start;fill:#000000;fill-opacity:1;stroke:none;stroke-width:1px;stroke-linecap:butt;stroke-linejoin:miter;stroke-opacity:1"
         id="text4220"
         inkscape:export-xdpi="500"
         inkscape:export-ydpi="500">
        <path
           d="m 338.80355,186.97244 q 0,9.79346 -4.72308,15.14166 -4.72309,5.31347 -12.57174,5.31347 -8.09176,0 -12.74539,-5.48712 -4.61889,-5.52184 -4.61889,-14.96801 0,-9.72399 4.75781,-15.10692 4.79254,-5.38293 12.60647,-5.38293 7.84865,0 12.57174,5.38293 4.72308,5.3482 4.72308,15.10692 z m -6.73734,0 q 0,-7.53609 -2.74356,-11.18259 -2.74355,-3.68123 -7.81392,-3.68123 -5.1051,0 -7.88339,3.68123 -2.74355,3.6465 -2.74355,11.18259 0,7.293 2.74355,11.07842 2.77829,3.75068 7.88339,3.75068 5.03564,0 7.7792,-3.68123 2.77828,-3.71595 2.77828,-11.14787 z"
           style="font-style:normal;font-variant:normal;font-weight:normal;font-stretch:normal;font-size:71.12409973px;line-height:125%;font-family:Tahoma;-inkscape-font-specification:'Tahoma, Normal';text-align:start;letter-spacing:-2.6671536px;writing-mode:lr-tb;text-anchor:start"
           id="path4273"
           inkscape:connector-curvature="0" />
        <path
           d="m 396.28627,206.35098 -12.91902,0 0,-34.27709 -9.41144,22.1221 -8.85579,0 -9.41144,-22.1221 0,34.27709 -12.22445,0 0,-51.71083 14.96801,0 11.46043,25.5255 11.42569,-25.5255 14.96801,0 0,51.71083 z"
           style="font-style:normal;font-variant:normal;font-weight:bold;font-stretch:normal;font-size:71.12409973px;line-height:125%;font-family:Tahoma;-inkscape-font-specification:'Tahoma, Bold';text-align:start;letter-spacing:-2.6671536px;writing-mode:lr-tb;text-anchor:start"
           id="path4275"
           inkscape:connector-curvature="0" />
        <path
           d="m 404.28079,206.35098 0,-51.71083 34.97166,0 0,9.86291 -22.05264,0 0,9.06416 20.31621,0 0,9.86291 -20.31621,0 0,13.05794 22.05264,0 0,9.86291 -34.97166,0 z"
           style="font-style:normal;font-variant:normal;font-weight:bold;font-stretch:normal;font-size:71.12409973px;line-height:125%;font-family:Tahoma;-inkscape-font-specification:'Tahoma, Bold';text-align:start;letter-spacing:-2.6671536px;writing-mode:lr-tb;text-anchor:start"
           id="path4277"
           inkscape:connector-curvature="0" />
        <path
           d="m 498.19377,206.35098 -12.91903,0 0,-34.27709 -9.41144,22.1221 -8.85578,0 -9.41144,-22.1221 0,34.27709 -12.22446,0 0,-51.71083 14.96801,0 11.46043,25.5255 11.4257,-25.5255 14.96801,0 0,51.71083 z"
           style="font-style:normal;font-variant:normal;font-weight:bold;font-stretch:normal;font-size:71.12409973px;line-height:125%;font-family:Tahoma;-inkscape-font-specification:'Tahoma, Bold';text-align:start;letter-spacing:-2.6671536px;writing-mode:lr-tb;text-anchor:start"
           id="path4279"
           inkscape:connector-curvature="0" />
        <path
           d="m 519.55102,207.11501 c -3.56547,0 -6.34375,-1.00713 -8.33486,-3.02138 -1.9911,-2.03741 -2.98665,-5.24402 -2.98665,-9.61982 l 0,-21.49698 -4.41053,0 0,-5.41765 4.41053,0 0,-11.14787 6.52897,0 0,11.14787 12.01608,0 0,5.41765 -12.01608,0 0,18.44087 c 0,1.96795 0.0347,3.48443 0.10418,4.54944 0.0695,1.06501 0.33571,2.06057 0.79876,2.98666 0.39359,0.81033 1.03028,1.42387 1.91007,1.84061 0.87979,0.39359 2.07213,0.59039 3.57704,0.59039 1.06501,0 2.09529,-0.15049 3.09084,-0.45147 0.99555,-0.32413 1.71328,-0.59039 2.15317,-0.79876 l 0.38202,0 0,5.86913 c -1.22708,0.34729 -2.47731,0.61354 -3.75069,0.79875 -1.25023,0.20837 -2.40784,0.31256 -3.47285,0.31256 z"
           style="font-style:normal;font-variant:normal;font-weight:normal;font-stretch:normal;font-size:71.12409973px;line-height:125%;font-family:Tahoma;-inkscape-font-specification:'Tahoma, Normal';text-align:start;letter-spacing:-2.6671536px;writing-mode:lr-tb;text-anchor:start"
           id="path4281"
           inkscape:connector-curvature="0"
           sodipodi:nodetypes="scsccccccccccssccscccccs" />
        <path
           d="m 552.82017,196.80063 0,-10.76586 c -1.55122,0.13891 -3.51917,0.33571 -5.90386,0.59039 -2.36154,0.23152 -4.27161,0.56723 -5.73021,1.00713 -1.73644,0.5325 -3.17189,1.35441 -4.30635,2.46572 -1.13447,1.08817 -1.7017,2.61623 -1.7017,4.58418 0,2.22263 0.62511,3.90117 1.87535,5.03564 1.25022,1.13447 3.07926,1.7017 5.48711,1.7017 2.06056,0 3.92432,-0.4399 5.5913,-1.31969 1.66697,-0.90294 3.22976,-2.00268 4.68836,-3.29921 z m 0,5.41765 c -0.53251,0.39359 -1.25024,0.94925 -2.15318,1.66697 -0.87979,0.69457 -1.73643,1.25023 -2.56991,1.66698 -1.15762,0.60196 -2.28051,1.06501 -3.36867,1.38914 -1.06501,0.32413 -2.56991,0.4862 -4.51471,0.4862 -1.59752,0 -3.114,-0.30098 -4.54945,-0.90294 -1.43545,-0.60197 -2.69725,-1.44703 -3.78541,-2.53519 -1.04186,-1.06501 -1.87534,-2.37312 -2.50046,-3.92433 -0.62512,-1.57436 -0.93767,-3.22975 -0.93767,-4.96618 0,-2.68568 0.56723,-4.96619 1.7017,-6.84153 1.13446,-1.89849 2.92877,-3.4034 5.38293,-4.51471 2.17632,-0.99555 4.74624,-1.67855 7.70974,-2.04899 2.9635,-0.39359 6.15853,-0.68299 9.58509,-0.86821 l 0,-1.25023 c 0,-1.52806 -0.23153,-2.75514 -0.69458,-3.68123 -0.46305,-0.94925 -1.11132,-1.67855 -1.9448,-2.1879 -0.83348,-0.5325 -1.85219,-0.87978 -3.05611,-1.04185 -1.20392,-0.18522 -2.44258,-0.27783 -3.71596,-0.27783 -1.5049,0 -3.27606,0.23152 -5.31347,0.69457 -2.03741,0.43989 -4.07482,1.08816 -6.11222,1.9448 l -0.38202,0 0,-6.63316 c 1.20392,-0.34729 2.92878,-0.7293 5.17456,-1.14604 2.24578,-0.41674 4.4684,-0.62511 6.66788,-0.62511 2.66252,0 4.9083,0.20837 6.73734,0.62511 1.82904,0.41674 3.47286,1.16919 4.93146,2.25736 1.41229,1.06501 2.46572,2.44257 3.1603,4.1327 0.69457,1.69012 1.04186,3.75068 1.04186,6.18168 l 0,26.53262 -6.49424,0 z"
           style="font-style:normal;font-variant:normal;font-weight:normal;font-stretch:normal;font-size:71.12409973px;line-height:125%;font-family:Tahoma;-inkscape-font-specification:'Tahoma, Normal';text-align:start;letter-spacing:-2.6671536px;writing-mode:lr-tb;text-anchor:start"
           id="path4283"
           inkscape:connector-curvature="0"
           sodipodi:nodetypes="cccccsssccccccssccsccccscccsccccssscssccc" />
      </g>
      <text
         xml:space="preserve"
         style="font-style:normal;font-weight:normal;font-size:40px;line-height:125%;font-family:sans-serif;letter-spacing:-32.11999512px;word-spacing:0px;fill:#000000;fill-opacity:1;stroke:none;stroke-width:1px;stroke-linecap:butt;stroke-linejoin:miter;stroke-opacity:1"
         x="347.93484"
         y="363.92737"
         id="text4226"
         sodipodi:linespacing="125%"><tspan
           sodipodi:role="line"
           id="tspan4228"
           x="347.93484"
           y="363.92737" /></text>
    </g>
    <path
       style="color:#000000;clip-rule:nonzero;display:inline;overflow:visible;visibility:visible;opacity:1;isolation:auto;mix-blend-mode:normal;color-interpolation:sRGB;color-interpolation-filters:linearRGB;solid-color:#000000;solid-opacity:1;fill:#0e2a7e;fill-opacity:1;fill-rule:nonzero;stroke:none;stroke-width:1;stroke-linecap:round;stroke-linejoin:round;stroke-miterlimit:4;stroke-dasharray:none;stroke-dashoffset:0;stroke-opacity:1;color-rendering:auto;image-rendering:auto;shape-rendering:auto;text-rendering:auto;enable-background:accumulate"
       id="path4663-3-5-1"
       d="m 269.09523,243.71756 c 3.92525,-0.11736 7.8598,-0.0858 11.7886,-0.11384 17.88202,-0.22225 35.76461,-0.28307 53.64806,-0.24966 33.74963,0.20029 67.49668,0.62993 101.2462,0.84544 23.00239,0.15959 46.00434,0.0369 69.00517,-0.19696 0.3339,0.0811 -0.93822,4.33763 -1.2721,4.25654 l 0,0 c -22.82092,-0.82014 -45.65147,-1.44353 -68.4938,-1.40756 -32.8306,0.10034 -65.68449,0.51717 -98.4331,2.80037 -17.12728,1.31945 -34.27595,2.76255 -51.17673,5.68459 -3.36851,0.60917 -6.7663,1.18827 -10.04918,2.11499 -1.0772,0.39925 -7.34033,-13.33466 -6.26312,-13.73391 z"
       inkscape:connector-curvature="0"
       inkscape:export-filename="/home/matthias/momenta_full.png"
       inkscape:export-xdpi="500"
       inkscape:export-ydpi="500" />
    <path
       style="color:#000000;clip-rule:nonzero;display:inline;overflow:visible;visibility:visible;opacity:1;isolation:auto;mix-blend-mode:normal;color-interpolation:sRGB;color-interpolation-filters:linearRGB;solid-color:#000000;solid-opacity:1;fill:#0e2a7e;fill-opacity:1;fill-rule:nonzero;stroke:none;stroke-width:1.25;stroke-linecap:round;stroke-linejoin:round;stroke-miterlimit:4;stroke-dasharray:none;stroke-dashoffset:0;stroke-opacity:1;color-rendering:auto;image-rendering:auto;shape-rendering:auto;text-rendering:auto;enable-background:accumulate"
       d="m 182.30334,137.92577 c -6.1095,1.45536 -11.1925,15.60489 -14.945,34.04314 -3.2143,15.7937 -7.1624,32.6022 -10.5797,52.00108 -3.4174,19.39887 -5.2015,30.67735 -12.201,45.64159 5.2194,5.18978 24.1434,7.47483 21.2796,1.46625 -2.8638,-6.00858 -0.3165,-21.71175 3.0945,-45.18535 3.411,-23.4736 6.2336,-40.83978 9.4127,-55.51422 3.179,-14.67444 6.9303,-21.88529 8.9313,-18.02092 3.1153,6.01628 5.5044,14.81135 8.2318,31.46234 2.7274,16.65099 4.7547,42.39891 7.9015,59.74334 3.1468,17.34444 9.7306,28.25572 14.8601,8.58966 5.1294,-19.66605 12.85467,-59.74166 15.89767,-45.09834 3.0431,14.64333 0.2356,46.67921 4.8408,65.96068 2.6703,10.93145 11.4154,5.50952 14.8573,-2.94848 3.4418,-8.45802 7.0424,-16.38882 11.1297,-24.06704 -2.8979,-4.01419 -13.9973,-6.65732 -11.8766,-0.34409 0.8289,2.46742 -2.5374,13.53617 -6.9619,14.65491 -2.7208,-24.1042 -3.1005,-66.55654 -4.7634,-72.64125 -1.6629,-6.08472 -8.7922,-8.435 -12.76576,4.10881 -3.97361,12.5438 -8.94991,41.30628 -13.69921,47.27922 -4.7493,5.97293 -6.7815,-15.31809 -7.9562,-26.59999 -1.1747,-11.28189 -4.2792,-39.90727 -7.9776,-54.70998 -3.6984,-14.80271 -6.2581,-22.31133 -16.7106,-19.82136 z"
       id="path4495-5-6"
       inkscape:connector-curvature="0"
       sodipodi:nodetypes="sszczzzszzzzczcsczzzzzs"
       inkscape:export-filename="/home/matthias/momenta_full.png"
       inkscape:export-xdpi="500"
       inkscape:export-ydpi="500" />
  </g>
</svg>
